ISO-10303-21;
HEADER;
FILE_DESCRIPTION (( 'STEP AP214' ),
    '1' );
FILE_NAME ('mesa_MueblesDico_MOC94387S1.STEP',
    '2026-07-14T00:05:41',
    ( '' ),
    ( '' ),
    'SwSTEP 2.0',
    'SolidWorks 2021',
    '' );
FILE_SCHEMA (( 'AUTOMOTIVE_DESIGN' ));
ENDSEC;

DATA;
#1 = EDGE_CURVE ( 'NONE', #150, #510, #34, .T. ) ;
#2 = VECTOR ( 'NONE', #4, 1000.000000000000000 ) ;
#3 = ORIENTED_EDGE ( 'NONE', *, *, #237, .F. ) ;
#4 = DIRECTION ( 'NONE',  ( 3.700743415417188139E-16, -0.000000000000000000, 1.000000000000000000 ) ) ;
#5 = CARTESIAN_POINT ( 'NONE',  ( 244.9999999999994316, -20.00000000000000000, -244.9999999999994316 ) ) ;
#6 = ADVANCED_FACE ( 'NONE', ( #819 ), #363, .F. ) ;
#7 = ORIENTED_EDGE ( 'NONE', *, *, #316, .F. ) ;
#8 = DIRECTION ( 'NONE',  ( 0.000000000000000000, -0.000000000000000000, -1.000000000000000000 ) ) ;
#9 = CARTESIAN_POINT ( 'NONE',  ( -244.9999999999997442, -20.00000000000000000, -319.9999999999995453 ) ) ;
#10 = ORIENTED_EDGE ( 'NONE', *, *, #355, .T. ) ;
#11 = DIRECTION ( 'NONE',  ( 0.4472135954999584273, 0.7745966692414828492, 0.4472135954999583718 ) ) ;
#12 = FACE_OUTER_BOUND ( 'NONE', #308, .T. ) ;
#13 = ORIENTED_EDGE ( 'NONE', *, *, #842, .T. ) ;
#14 = ADVANCED_FACE ( 'NONE', ( #624 ), #303, .T. ) ;
#15 = SURFACE_STYLE_USAGE ( .BOTH. , #486 ) ;
#16 = DIRECTION ( 'NONE',  ( -1.000000000000000000, 0.000000000000000000, 3.700743415417188632E-16 ) ) ;
#17 = ORIENTED_EDGE ( 'NONE', *, *, #604, .F. ) ;
#18 = DIRECTION ( 'NONE',  ( -1.110223024625156540E-15, -0.000000000000000000, -1.000000000000000000 ) ) ;
#19 = EDGE_CURVE ( 'NONE', #193, #746, #433, .T. ) ;
#20 = CARTESIAN_POINT ( 'NONE',  ( -244.9999999999997158, -20.00000000000000000, -244.9999999999995453 ) ) ;
#21 = ORIENTED_EDGE ( 'NONE', *, *, #643, .T. ) ;
#22 = AXIS2_PLACEMENT_3D ( 'NONE', #569, #502, #755 ) ;
#23 = DIRECTION ( 'NONE',  ( -3.700743415417188632E-16, 0.000000000000000000, 1.000000000000000000 ) ) ;
#24 = LINE ( 'NONE', #232, #266 ) ;
#25 = EDGE_CURVE ( 'NONE', #711, #386, #632, .T. ) ;
#26 = CARTESIAN_POINT ( 'NONE',  ( 319.9999999999998295, -20.00000000000000000, 244.9999999999996021 ) ) ;
#27 = ORIENTED_EDGE ( 'NONE', *, *, #338, .F. ) ;
#28 = LINE ( 'NONE', #300, #701 ) ;
#29 = VECTOR ( 'NONE', #47, 1000.000000000000000 ) ;
#30 = AXIS2_PLACEMENT_3D ( 'NONE', #741, #560, #411 ) ;
#31 = DIRECTION ( 'NONE',  ( -0.000000000000000000, 1.000000000000000000, -0.000000000000000000 ) ) ;
#32 = VECTOR ( 'NONE', #229, 1000.000000000000000 ) ;
#33 =( NAMED_UNIT ( * ) PLANE_ANGLE_UNIT ( ) SI_UNIT ( $, .RADIAN. ) );
#34 = LINE ( 'NONE', #181, #391 ) ;
#35 = ADVANCED_FACE ( 'NONE', ( #573 ), #828, .T. ) ;
#36 = DIRECTION ( 'NONE',  ( 1.442222014787672246E-16, 0.5000000000000007772, 0.8660254037844382635 ) ) ;
#37 = LINE ( 'NONE', #369, #809 ) ;
#38 = LINE ( 'NONE', #826, #443 ) ;
#39 =( LENGTH_UNIT ( ) NAMED_UNIT ( * ) SI_UNIT ( .MILLI., .METRE. ) );
#40 = CARTESIAN_POINT ( 'NONE',  ( 244.9999999999995168, 0.000000000000000000, -319.9999999999994316 ) ) ;
#41 = ORIENTED_EDGE ( 'NONE', *, *, #55, .F. ) ;
#42 = STYLED_ITEM ( 'NONE', ( #285 ), #210 ) ;
#43 = ADVANCED_FACE ( 'NONE', ( #651 ), #123, .F. ) ;
#44 = DIRECTION ( 'NONE',  ( -0.000000000000000000, 1.000000000000000000, -0.000000000000000000 ) ) ;
#45 = VERTEX_POINT ( 'NONE', #62 ) ;
#46 = ORIENTED_EDGE ( 'NONE', *, *, #653, .F. ) ;
#47 = DIRECTION ( 'NONE',  ( 0.000000000000000000, 0.000000000000000000, -1.000000000000000000 ) ) ;
#48 = EDGE_CURVE ( 'NONE', #386, #240, #530, .T. ) ;
#49 =( NAMED_UNIT ( * ) SI_UNIT ( $, .STERADIAN. ) SOLID_ANGLE_UNIT ( ) );
#50 = EDGE_CURVE ( 'NONE', #695, #722, #198, .T. ) ;
#51 = ORIENTED_EDGE ( 'NONE', *, *, #581, .T. ) ;
#52 = ORIENTED_EDGE ( 'NONE', *, *, #325, .T. ) ;
#53 = LINE ( 'NONE', #201, #185 ) ;
#54 = DIRECTION ( 'NONE',  ( -1.110223024625156540E-15, 0.000000000000000000, -1.000000000000000000 ) ) ;
#55 = EDGE_CURVE ( 'NONE', #182, #135, #264, .T. ) ;
#56 = VERTEX_POINT ( 'NONE', #195 ) ;
#57 = CARTESIAN_POINT ( 'NONE',  ( 319.9999999999996589, 0.000000000000000000, 0.000000000000000000 ) ) ;
#58 = ORIENTED_EDGE ( 'NONE', *, *, #454, .T. ) ;
#59 = VECTOR ( 'NONE', #159, 1000.000000000000000 ) ;
#60 = CARTESIAN_POINT ( 'NONE',  ( -244.9999999999996305, -20.00000000000000000, 319.9999999999998863 ) ) ;
#61 = PLANE ( 'NONE',  #833 ) ;
#62 = CARTESIAN_POINT ( 'NONE',  ( -319.9999999999996589, -20.00000000000000000, -319.9999999999995453 ) ) ;
#63 = ORIENTED_EDGE ( 'NONE', *, *, #653, .T. ) ;
#64 = CARTESIAN_POINT ( 'NONE',  ( -319.9999999999996021, 0.000000000000000000, 0.000000000000000000 ) ) ;
#65 = VECTOR ( 'NONE', #310, 1000.000000000000000 ) ;
#66 = CARTESIAN_POINT ( 'NONE',  ( 3.552713678800499036E-14, 0.000000000000000000, 319.9999999999998295 ) ) ;
#67 = ORIENTED_EDGE ( 'NONE', *, *, #477, .T. ) ;
#68 = CARTESIAN_POINT ( 'NONE',  ( 500.0000000000000000, 350.0000000000000000, -499.9999999999999432 ) ) ;
#69 = ADVANCED_FACE ( 'NONE', ( #188 ), #720, .F. ) ;
#70 = VECTOR ( 'NONE', #167, 1000.000000000000000 ) ;
#71 = DIRECTION ( 'NONE',  ( -0.000000000000000000, 1.000000000000000000, -0.000000000000000000 ) ) ;
#72 = VECTOR ( 'NONE', #764, 1000.000000000000000 ) ;
#73 = VECTOR ( 'NONE', #400, 1000.000000000000000 ) ;
#74 = ORIENTED_EDGE ( 'NONE', *, *, #290, .F. ) ;
#75 = CARTESIAN_POINT ( 'NONE',  ( 500.0000000000000000, 311.7691453623978646, 500.0000000000001137 ) ) ;
#76 = ORIENTED_EDGE ( 'NONE', *, *, #1, .T. ) ;
#77 = DIRECTION ( 'NONE',  ( 1.000000000000000000, 0.000000000000000000, 1.110223024625156540E-15 ) ) ;
#78 = EDGE_LOOP ( 'NONE', ( #577, #669, #829, #652 ) ) ;
#79 = ADVANCED_FACE ( 'NONE', ( #122 ), #458, .F. ) ;
#80 =( NAMED_UNIT ( * ) PLANE_ANGLE_UNIT ( ) SI_UNIT ( $, .RADIAN. ) );
#81 = CARTESIAN_POINT ( 'NONE',  ( -244.9999999999996021, -20.00000000000000000, 244.9999999999998863 ) ) ;
#82 = VERTEX_POINT ( 'NONE', #271 ) ;
#83 = PLANE ( 'NONE',  #533 ) ;
#84 = CARTESIAN_POINT ( 'NONE',  ( -319.9999999999996589, -20.00000000000000000, -244.9999999999995453 ) ) ;
#85 = PLANE ( 'NONE',  #740 ) ;
#86 = ORIENTED_EDGE ( 'NONE', *, *, #148, .F. ) ;
#87 = DIRECTION ( 'NONE',  ( 1.000000000000000000, -0.000000000000000000, -0.000000000000000000 ) ) ;
#88 = EDGE_CURVE ( 'NONE', #135, #56, #134, .T. ) ;
#89 = DIRECTION ( 'NONE',  ( 0.000000000000000000, -1.000000000000000000, 0.000000000000000000 ) ) ;
#90 = DIRECTION ( 'NONE',  ( -0.000000000000000000, 1.000000000000000000, -0.000000000000000000 ) ) ;
#91 = VERTEX_POINT ( 'NONE', #847 ) ;
#92 = VECTOR ( 'NONE', #710, 1000.000000000000000 ) ;
#93 = CARTESIAN_POINT ( 'NONE',  ( -244.9999999999997158, 0.000000000000000000, -244.9999999999995453 ) ) ;
#94 = LINE ( 'NONE', #575, #446 ) ;
#95 = EDGE_CURVE ( 'NONE', #130, #170, #381, .T. ) ;
#96 = ORIENTED_EDGE ( 'NONE', *, *, #88, .T. ) ;
#97 = DIRECTION ( 'NONE',  ( -1.000000000000000000, 0.000000000000000000, 0.000000000000000000 ) ) ;
#98 = VECTOR ( 'NONE', #645, 1000.000000000000000 ) ;
#99 = CARTESIAN_POINT ( 'NONE',  ( 319.9999999999998295, -20.00000000000000000, 244.9999999999996021 ) ) ;
#100 = DIRECTION ( 'NONE',  ( 0.000000000000000000, 0.000000000000000000, 1.000000000000000000 ) ) ;
#101 = DIRECTION ( 'NONE',  ( -0.000000000000000000, -1.000000000000000000, -0.000000000000000000 ) ) ;
#102 = ORIENTED_EDGE ( 'NONE', *, *, #821, .F. ) ;
#103 = CARTESIAN_POINT ( 'NONE',  ( 244.9999999999995168, -20.00000000000000000, -319.9999999999994316 ) ) ;
#104 = CARTESIAN_POINT ( 'NONE',  ( 319.9999999999998295, -20.00000000000000000, 244.9999999999996021 ) ) ;
#105 = EDGE_CURVE ( 'NONE', #287, #845, #388, .T. ) ;
#106 = ORIENTED_EDGE ( 'NONE', *, *, #600, .F. ) ;
#107 = LINE ( 'NONE', #631, #333 ) ;
#108 = CARTESIAN_POINT ( 'NONE',  ( 0.000000000000000000, 0.000000000000000000, 0.000000000000000000 ) ) ;
#109 = ORIENTED_EDGE ( 'NONE', *, *, #270, .F. ) ;
#110 = EDGE_LOOP ( 'NONE', ( #841, #429, #102, #311 ) ) ;
#111 = VECTOR ( 'NONE', #309, 1000.000000000000000 ) ;
#112 = AXIS2_PLACEMENT_3D ( 'NONE', #68, #204, #334 ) ;
#113 = CARTESIAN_POINT ( 'NONE',  ( 319.9999999999999432, -20.00000000000000000, 319.9999999999996021 ) ) ;
#114 = ORIENTED_EDGE ( 'NONE', *, *, #362, .T. ) ;
#115 = EDGE_LOOP ( 'NONE', ( #46, #824, #601, #17, #328, #536, #769, #96, #234, #106, #641, #7 ) ) ;
#116 = CARTESIAN_POINT ( 'NONE',  ( -499.9999999999999432, 350.0000000000000000, -499.9999999999997726 ) ) ;
#117 = EDGE_CURVE ( 'NONE', #514, #283, #717, .T. ) ;
#118 = CARTESIAN_POINT ( 'NONE',  ( -319.9999999999996021, -20.00000000000000000, 319.9999999999998863 ) ) ;
#119 = ORIENTED_EDGE ( 'NONE', *, *, #581, .F. ) ;
#120 = LINE ( 'NONE', #113, #98 ) ;
#121 = ADVANCED_FACE ( 'NONE', ( #251 ), #61, .F. ) ;
#122 = FACE_OUTER_BOUND ( 'NONE', #837, .T. ) ;
#123 = PLANE ( 'NONE',  #133 ) ;
#124 = VERTEX_POINT ( 'NONE', #397 ) ;
#125 = LINE ( 'NONE', #460, #472 ) ;
#126 = DIRECTION ( 'NONE',  ( -0.000000000000000000, -1.000000000000000000, -0.000000000000000000 ) ) ;
#127 = ORIENTED_EDGE ( 'NONE', *, *, #643, .F. ) ;
#128 = LINE ( 'NONE', #599, #255 ) ;
#129 = CARTESIAN_POINT ( 'NONE',  ( -499.9999999999999432, 350.0000000000000000, 500.0000000000002274 ) ) ;
#130 = VERTEX_POINT ( 'NONE', #118 ) ;
#131 = EDGE_CURVE ( 'NONE', #554, #808, #588, .T. ) ;
#132 = CARTESIAN_POINT ( 'NONE',  ( -244.9999999999996305, -20.00000000000000000, 319.9999999999998863 ) ) ;
#133 = AXIS2_PLACEMENT_3D ( 'NONE', #526, #777, #647 ) ;
#134 = LINE ( 'NONE', #66, #721 ) ;
#135 = VERTEX_POINT ( 'NONE', #455 ) ;
#136 = DIRECTION ( 'NONE',  ( 1.000000000000000000, 0.000000000000000000, -1.665334536937734564E-16 ) ) ;
#137 = CARTESIAN_POINT ( 'NONE',  ( 500.0000000000000000, 311.7691453623978646, 500.0000000000001137 ) ) ;
#138 = VECTOR ( 'NONE', #330, 1000.000000000000000 ) ;
#139 = AXIS2_PLACEMENT_3D ( 'NONE', #495, #273, #537 ) ;
#140 = PLANE ( 'NONE',  #30 ) ;
#141 = ORIENTED_EDGE ( 'NONE', *, *, #427, .T. ) ;
#142 =( GEOMETRIC_REPRESENTATION_CONTEXT ( 3 ) GLOBAL_UNCERTAINTY_ASSIGNED_CONTEXT ( ( #520 ) ) GLOBAL_UNIT_ASSIGNED_CONTEXT ( ( #428, #493, #436 ) ) REPRESENTATION_CONTEXT ( 'NONE', 'WORKASPACE' ) );
#143 = CARTESIAN_POINT ( 'NONE',  ( 0.000000000000000000, -20.00000000000000000, 0.000000000000000000 ) ) ;
#144 = EDGE_CURVE ( 'NONE', #45, #150, #584, .T. ) ;
#145 = CARTESIAN_POINT ( 'NONE',  ( 500.0000000000000000, 311.7691453623978646, 500.0000000000001137 ) ) ;
#146 = ORIENTED_EDGE ( 'NONE', *, *, #55, .T. ) ;
#147 = PLANE ( 'NONE',  #467 ) ;
#148 = EDGE_CURVE ( 'NONE', #393, #348, #331, .T. ) ;
#149 = DIRECTION ( 'NONE',  ( 0.000000000000000000, 0.000000000000000000, 1.000000000000000000 ) ) ;
#150 = VERTEX_POINT ( 'NONE', #534 ) ;
#151 = FACE_OUTER_BOUND ( 'NONE', #78, .T. ) ;
#152 = VECTOR ( 'NONE', #11, 1000.000000000000000 ) ;
#153 = DIRECTION ( 'NONE',  ( -1.000000000000000000, 0.000000000000000000, 1.665334536937734811E-16 ) ) ;
#154 = ORIENTED_EDGE ( 'NONE', *, *, #338, .T. ) ;
#155 = AXIS2_PLACEMENT_3D ( 'NONE', #814, #286, #344 ) ;
#156 = CARTESIAN_POINT ( 'NONE',  ( -244.9999999999996021, -20.00000000000000000, 244.9999999999998863 ) ) ;
#157 = EDGE_CURVE ( 'NONE', #412, #56, #202, .T. ) ;
#158 = CARTESIAN_POINT ( 'NONE',  ( 244.9999999999999716, -20.00000000000000000, 319.9999999999996589 ) ) ;
#159 = DIRECTION ( 'NONE',  ( 1.000000000000000000, -0.000000000000000000, -0.000000000000000000 ) ) ;
#160 = ORIENTED_EDGE ( 'NONE', *, *, #131, .F. ) ;
#161 = CARTESIAN_POINT ( 'NONE',  ( 500.0000000000000000, 311.7691453623978646, -499.9999999999999432 ) ) ;
#162 = ADVANCED_FACE ( 'NONE', ( #450 ), #644, .F. ) ;
#163 = CARTESIAN_POINT ( 'NONE',  ( 319.9999999999994884, 0.000000000000000000, -319.9999999999993747 ) ) ;
#164 = DIRECTION ( 'NONE',  ( 1.000000000000000000, 0.000000000000000000, 0.000000000000000000 ) ) ;
#165 = ORIENTED_EDGE ( 'NONE', *, *, #817, .F. ) ;
#166 = LINE ( 'NONE', #421, #226 ) ;
#167 = DIRECTION ( 'NONE',  ( 0.000000000000000000, 0.000000000000000000, -1.000000000000000000 ) ) ;
#168 = EDGE_LOOP ( 'NONE', ( #836, #236, #674, #127, #736, #215 ) ) ;
#169 = CARTESIAN_POINT ( 'NONE',  ( 244.9999999999993747, 0.000000000000000000, -319.9999999999996021 ) ) ;
#170 = VERTEX_POINT ( 'NONE', #772 ) ;
#171 = CARTESIAN_POINT ( 'NONE',  ( 244.9999999999998863, -20.00000000000000000, 244.9999999999996589 ) ) ;
#172 = ADVANCED_FACE ( 'NONE', ( #340 ), #725, .F. ) ;
#173 = CARTESIAN_POINT ( 'NONE',  ( -244.9999999999996021, -20.00000000000000000, 244.9999999999998863 ) ) ;
#174 = ORIENTED_EDGE ( 'NONE', *, *, #552, .T. ) ;
#175 = DIRECTION ( 'NONE',  ( -0.000000000000000000, 1.000000000000000000, -0.000000000000000000 ) ) ;
#176 = SURFACE_SIDE_STYLE ('',( #640 ) ) ;
#177 = DIRECTION ( 'NONE',  ( 0.000000000000000000, -1.000000000000000000, 0.000000000000000000 ) ) ;
#178 = ADVANCED_FACE ( 'NONE', ( #729 ), #147, .T. ) ;
#179 = AXIS2_PLACEMENT_3D ( 'NONE', #5, #473, #410 ) ;
#180 = DIRECTION ( 'NONE',  ( 1.000000000000000000, 0.000000000000000000, -7.401486830834381209E-16 ) ) ;
#181 = CARTESIAN_POINT ( 'NONE',  ( -244.9999999999997442, -20.00000000000000000, -319.9999999999995453 ) ) ;
#182 = VERTEX_POINT ( 'NONE', #158 ) ;
#183 = AXIS2_PLACEMENT_3D ( 'NONE', #557, #497, #238 ) ;
#184 = EDGE_CURVE ( 'NONE', #324, #514, #220, .T. ) ;
#185 = VECTOR ( 'NONE', #315, 1000.000000000000000 ) ;
#186 = AXIS2_PLACEMENT_3D ( 'NONE', #405, #77, #619 ) ;
#187 = CARTESIAN_POINT ( 'NONE',  ( -499.9999999999999432, 350.0000000000000000, 500.0000000000002274 ) ) ;
#188 = FACE_OUTER_BOUND ( 'NONE', #715, .T. ) ;
#189 = MECHANICAL_DESIGN_GEOMETRIC_PRESENTATION_REPRESENTATION (  '', ( #563 ), #142 ) ;
#190 = ORIENTED_EDGE ( 'NONE', *, *, #401, .F. ) ;
#191 = LINE ( 'NONE', #511, #72 ) ;
#192 = CARTESIAN_POINT ( 'NONE',  ( 244.9999999999999716, -20.00000000000000000, 319.9999999999996589 ) ) ;
#193 = VERTEX_POINT ( 'NONE', #404 ) ;
#194 = CARTESIAN_POINT ( 'NONE',  ( -244.9999999999996021, 0.000000000000000000, 244.9999999999998863 ) ) ;
#195 = CARTESIAN_POINT ( 'NONE',  ( -244.9999999999996021, 0.000000000000000000, 319.9999999999998295 ) ) ;
#196 = EDGE_LOOP ( 'NONE', ( #483, #503, #74, #203 ) ) ;
#197 = CARTESIAN_POINT ( 'NONE',  ( 500.0000000000000000, 350.0000000000000000, -499.9999999999999432 ) ) ;
#198 = LINE ( 'NONE', #835, #759 ) ;
#199 = EDGE_CURVE ( 'NONE', #348, #746, #277, .T. ) ;
#200 = EDGE_LOOP ( 'NONE', ( #768, #465, #527, #10 ) ) ;
#201 = CARTESIAN_POINT ( 'NONE',  ( -319.9999999999996021, -20.00000000000000000, 244.9999999999998863 ) ) ;
#202 = LINE ( 'NONE', #659, #803 ) ;
#203 = ORIENTED_EDGE ( 'NONE', *, *, #618, .T. ) ;
#204 = DIRECTION ( 'NONE',  ( 1.665334536937734564E-16, -0.000000000000000000, 1.000000000000000000 ) ) ;
#205 = VECTOR ( 'NONE', #765, 1000.000000000000000 ) ;
#206 = ORIENTED_EDGE ( 'NONE', *, *, #748, .T. ) ;
#207 = EDGE_CURVE ( 'NONE', #150, #778, #538, .T. ) ;
#208 = VECTOR ( 'NONE', #590, 1000.000000000000000 ) ;
#209 = LINE ( 'NONE', #296, #519 ) ;
#210 = MANIFOLD_SOLID_BREP ( 'Saliente-Extruir2', #284 ) ;
#211 = EDGE_LOOP ( 'NONE', ( #545, #648, #539, #802 ) ) ;
#212 = PRODUCT_RELATED_PRODUCT_CATEGORY ( 'part', '', ( #448 ) ) ;
#213 = CARTESIAN_POINT ( 'NONE',  ( -244.9999999999997158, -20.00000000000000000, -244.9999999999995453 ) ) ;
#214 = LINE ( 'NONE', #81, #637 ) ;
#215 = ORIENTED_EDGE ( 'NONE', *, *, #686, .F. ) ;
#216 = CARTESIAN_POINT ( 'NONE',  ( 0.000000000000000000, -20.00000000000000000, 0.000000000000000000 ) ) ;
#217 = PLANE ( 'NONE',  #155 ) ;
#218 = ORIENTED_EDGE ( 'NONE', *, *, #117, .F. ) ;
#219 = DIRECTION ( 'NONE',  ( -1.000000000000000000, -0.000000000000000000, 7.401486830834378251E-16 ) ) ;
#220 = LINE ( 'NONE', #540, #291 ) ;
#221 = AXIS2_PLACEMENT_3D ( 'NONE', #216, #480, #734 ) ;
#222 = CARTESIAN_POINT ( 'NONE',  ( -499.9999999999999432, 350.0000000000000000, 500.0000000000002274 ) ) ;
#223 = ORIENTED_EDGE ( 'NONE', *, *, #148, .T. ) ;
#224 = EDGE_CURVE ( 'NONE', #82, #711, #796, .T. ) ;
#225 = AXIS2_PLACEMENT_3D ( 'NONE', #187, #453, #449 ) ;
#226 = VECTOR ( 'NONE', #484, 1000.000000000000000 ) ;
#227 = DIRECTION ( 'NONE',  ( -1.000000000000000000, -0.000000000000000000, -7.401486830834381209E-16 ) ) ;
#228 = LINE ( 'NONE', #749, #585 ) ;
#229 = DIRECTION ( 'NONE',  ( 1.000000000000000000, 0.000000000000000000, -1.110223024625156540E-16 ) ) ;
#230 = VERTEX_POINT ( 'NONE', #799 ) ;
#231 = PLANE ( 'NONE',  #139 ) ;
#232 = CARTESIAN_POINT ( 'NONE',  ( -244.9999999999996305, -20.00000000000000000, 319.9999999999998863 ) ) ;
#233 = DIRECTION ( 'NONE',  ( 0.000000000000000000, 0.000000000000000000, 1.000000000000000000 ) ) ;
#234 = ORIENTED_EDGE ( 'NONE', *, *, #505, .F. ) ;
#235 = DIRECTION ( 'NONE',  ( 0.4472135954999584273, -0.7745966692414828492, 0.4472135954999583718 ) ) ;
#236 = ORIENTED_EDGE ( 'NONE', *, *, #25, .F. ) ;
#237 = EDGE_CURVE ( 'NONE', #522, #722, #343, .T. ) ;
#238 = DIRECTION ( 'NONE',  ( 0.000000000000000000, -0.000000000000000000, 1.000000000000000000 ) ) ;
#239 = EDGE_LOOP ( 'NONE', ( #63, #462, #272, #76 ) ) ;
#240 = VERTEX_POINT ( 'NONE', #281 ) ;
#241 = LINE ( 'NONE', #312, #111 ) ;
#242 = UNCERTAINTY_MEASURE_WITH_UNIT (LENGTH_MEASURE( 1.000000000000000082E-05 ), #608, 'distance_accuracy_value', 'NONE');
#243 = DIRECTION ( 'NONE',  ( 0.000000000000000000, 0.000000000000000000, 1.000000000000000000 ) ) ;
#244 = EDGE_LOOP ( 'NONE', ( #815, #409, #206, #629 ) ) ;
#245 = PLANE ( 'NONE',  #183 ) ;
#246 = APPLICATION_PROTOCOL_DEFINITION ( 'draft international standard', 'automotive_design', 1998, #471 ) ;
#247 = ORIENTED_EDGE ( 'NONE', *, *, #48, .F. ) ;
#248 = ADVANCED_FACE ( 'NONE', ( #551 ), #476, .F. ) ;
#249 = AXIS2_PLACEMENT_3D ( 'NONE', #844, #392, #776 ) ;
#250 = CARTESIAN_POINT ( 'NONE',  ( -244.9999999999997726, 0.000000000000000000, -319.9999999999994884 ) ) ;
#251 = FACE_OUTER_BOUND ( 'NONE', #752, .T. ) ;
#252 = EDGE_LOOP ( 'NONE', ( #456, #507, #218, #154 ) ) ;
#253 = ADVANCED_FACE ( 'NONE', ( #151 ), #672, .F. ) ;
#254 = ORIENTED_EDGE ( 'NONE', *, *, #562, .F. ) ;
#255 = VECTOR ( 'NONE', #219, 1000.000000000000000 ) ;
#256 = CARTESIAN_POINT ( 'NONE',  ( 319.9999999999993747, -20.00000000000000000, -244.9999999999993747 ) ) ;
#257 = CARTESIAN_POINT ( 'NONE',  ( 244.9999999999998863, -20.00000000000000000, 244.9999999999996589 ) ) ;
#258 = COLOUR_RGB ( '',1.000000000000000000, 1.000000000000000000, 1.000000000000000000 ) ;
#259 = ORIENTED_EDGE ( 'NONE', *, *, #280, .T. ) ;
#260 = LINE ( 'NONE', #57, #208 ) ;
#261 = ORIENTED_EDGE ( 'NONE', *, *, #157, .T. ) ;
#262 = CARTESIAN_POINT ( 'NONE',  ( 244.9999999999998863, -20.00000000000000000, 244.9999999999996589 ) ) ;
#263 = EDGE_CURVE ( 'NONE', #193, #758, #805, .T. ) ;
#264 = LINE ( 'NONE', #529, #319 ) ;
#265 = ORIENTED_EDGE ( 'NONE', *, *, #831, .F. ) ;
#266 = VECTOR ( 'NONE', #694, 1000.000000000000000 ) ;
#267 = CARTESIAN_POINT ( 'NONE',  ( 500.0000000000000000, 311.7691453623978646, 500.0000000000001137 ) ) ;
#268 = AXIS2_PLACEMENT_3D ( 'NONE', #9, #149, #347 ) ;
#269 = ADVANCED_BREP_SHAPE_REPRESENTATION ( 'mesa_MueblesDico_MOC94387S1', ( #210, #625 ), #431 ) ;
#270 = EDGE_CURVE ( 'NONE', #522, #135, #241, .T. ) ;
#271 = CARTESIAN_POINT ( 'NONE',  ( 244.9999999999994316, 0.000000000000000000, -244.9999999999994316 ) ) ;
#272 = ORIENTED_EDGE ( 'NONE', *, *, #207, .F. ) ;
#273 = DIRECTION ( 'NONE',  ( -1.110223024625156540E-16, 0.000000000000000000, -1.000000000000000000 ) ) ;
#274 = CARTESIAN_POINT ( 'NONE',  ( 244.9999999999998863, 0.000000000000000000, 244.9999999999996589 ) ) ;
#275 = ORIENTED_EDGE ( 'NONE', *, *, #105, .F. ) ;
#276 = EDGE_CURVE ( 'NONE', #845, #91, #367, .T. ) ;
#277 = LINE ( 'NONE', #274, #394 ) ;
#278 = FACE_OUTER_BOUND ( 'NONE', #293, .T. ) ;
#279 = EDGE_LOOP ( 'NONE', ( #757, #265, #254, #420, #750, #109 ) ) ;
#280 = EDGE_CURVE ( 'NONE', #708, #711, #627, .T. ) ;
#281 = CARTESIAN_POINT ( 'NONE',  ( 319.9999999999996589, 0.000000000000000000, -244.9999999999994316 ) ) ;
#282 = FACE_OUTER_BOUND ( 'NONE', #239, .T. ) ;
#283 = VERTEX_POINT ( 'NONE', #689 ) ;
#284 = CLOSED_SHELL ( 'NONE', ( #704, #543, #665, #744, #639, #350, #800, #594, #523, #737, #389, #6, #630, #633, #35, #121, #780, #69, #162, #178, #775, #723, #79, #172, #14, #792, #43, #253, #787, #248 ) ) ;
#285 = PRESENTATION_STYLE_ASSIGNMENT (( #15 ) ) ;
#286 = DIRECTION ( 'NONE',  ( 0.8660254037844382635, 0.5000000000000007772, 0.000000000000000000 ) ) ;
#287 = VERTEX_POINT ( 'NONE', #441 ) ;
#288 = CARTESIAN_POINT ( 'NONE',  ( -244.9999999999997158, -20.00000000000000000, -244.9999999999995453 ) ) ;
#289 = DIRECTION ( 'NONE',  ( 0.000000000000000000, 0.000000000000000000, -1.000000000000000000 ) ) ;
#290 = EDGE_CURVE ( 'NONE', #778, #678, #508, .T. ) ;
#291 = VECTOR ( 'NONE', #407, 1000.000000000000000 ) ;
#292 = FACE_OUTER_BOUND ( 'NONE', #703, .T. ) ;
#293 = EDGE_LOOP ( 'NONE', ( #589, #742, #548, #445 ) ) ;
#294 = CARTESIAN_POINT ( 'NONE',  ( -244.9999999999997158, 0.000000000000000000, -244.9999999999995453 ) ) ;
#295 = VECTOR ( 'NONE', #822, 1000.000000000000000 ) ;
#296 = CARTESIAN_POINT ( 'NONE',  ( 244.9999999999994316, -20.00000000000000000, -244.9999999999994316 ) ) ;
#297 = VERTEX_POINT ( 'NONE', #565 ) ;
#298 = VECTOR ( 'NONE', #528, 1000.000000000000000 ) ;
#299 = AXIS2_PLACEMENT_3D ( 'NONE', #75, #408, #794 ) ;
#300 = CARTESIAN_POINT ( 'NONE',  ( 244.9999999999994316, 0.000000000000000000, -244.9999999999994316 ) ) ;
#301 = PRODUCT_DEFINITION_FORMATION_WITH_SPECIFIED_SOURCE ( 'ANY', '', #448, .NOT_KNOWN. ) ;
#302 = LINE ( 'NONE', #699, #556 ) ;
#303 = PLANE ( 'NONE',  #22 ) ;
#304 = LINE ( 'NONE', #294, #2 ) ;
#305 = EDGE_CURVE ( 'NONE', #412, #130, #24, .T. ) ;
#306 = CARTESIAN_POINT ( 'NONE',  ( -319.9999999999996021, -20.00000000000000000, 244.9999999999998863 ) ) ;
#307 = CARTESIAN_POINT ( 'NONE',  ( -319.9999999999996021, 0.000000000000000000, -244.9999999999995453 ) ) ;
#308 = EDGE_LOOP ( 'NONE', ( #21, #359, #475, #561 ) ) ;
#309 = DIRECTION ( 'NONE',  ( -1.000000000000000000, 0.000000000000000000, 1.110223024625156540E-16 ) ) ;
#310 = DIRECTION ( 'NONE',  ( 1.000000000000000000, 0.000000000000000000, 7.401486830834378251E-16 ) ) ;
#311 = ORIENTED_EDGE ( 'NONE', *, *, #401, .T. ) ;
#312 = CARTESIAN_POINT ( 'NONE',  ( 3.552713678800499036E-14, 0.000000000000000000, 319.9999999999998295 ) ) ;
#313 = PRODUCT_CONTEXT ( 'NONE', #382, 'mechanical' ) ;
#314 = DIRECTION ( 'NONE',  ( -0.000000000000000000, 1.000000000000000000, -0.000000000000000000 ) ) ;
#315 = DIRECTION ( 'NONE',  ( -0.000000000000000000, -0.000000000000000000, -1.000000000000000000 ) ) ;
#316 = EDGE_CURVE ( 'NONE', #707, #845, #492, .T. ) ;
#317 = ORIENTED_EDGE ( 'NONE', *, *, #517, .F. ) ;
#318 = ORIENTED_EDGE ( 'NONE', *, *, #19, .T. ) ;
#319 = VECTOR ( 'NONE', #521, 1000.000000000000000 ) ;
#320 = CARTESIAN_POINT ( 'NONE',  ( 244.9999999999994316, -20.00000000000000000, -244.9999999999994316 ) ) ;
#321 = ORIENTED_EDGE ( 'NONE', *, *, #50, .F. ) ;
#322 = LINE ( 'NONE', #197, #402 ) ;
#323 = CARTESIAN_POINT ( 'NONE',  ( -244.9999999999997442, -20.00000000000000000, -319.9999999999995453 ) ) ;
#324 = VERTEX_POINT ( 'NONE', #681 ) ;
#325 = EDGE_CURVE ( 'NONE', #393, #193, #107, .T. ) ;
#326 = DIRECTION ( 'NONE',  ( 0.000000000000000000, 0.000000000000000000, -1.000000000000000000 ) ) ;
#327 = CARTESIAN_POINT ( 'NONE',  ( 244.9999999999998863, -20.00000000000000000, 244.9999999999996589 ) ) ;
#328 = ORIENTED_EDGE ( 'NONE', *, *, #517, .T. ) ;
#329 = VECTOR ( 'NONE', #839, 1000.000000000000000 ) ;
#330 = DIRECTION ( 'NONE',  ( 1.000000000000000000, 0.000000000000000000, 7.401486830834378251E-16 ) ) ;
#331 = LINE ( 'NONE', #595, #329 ) ;
#332 = ORIENTED_EDGE ( 'NONE', *, *, #806, .F. ) ;
#333 = VECTOR ( 'NONE', #180, 1000.000000000000000 ) ;
#334 = DIRECTION ( 'NONE',  ( 1.000000000000000000, 0.000000000000000000, -1.665334536937734564E-16 ) ) ;
#335 = VECTOR ( 'NONE', #387, 1000.000000000000000 ) ;
#336 = VECTOR ( 'NONE', #235, 1000.000000000000000 ) ;
#337 = CARTESIAN_POINT ( 'NONE',  ( -319.9999999999996021, -20.00000000000000000, 319.9999999999998863 ) ) ;
#338 = EDGE_CURVE ( 'NONE', #514, #240, #38, .T. ) ;
#339 = ORIENTED_EDGE ( 'NONE', *, *, #491, .T. ) ;
#340 = FACE_OUTER_BOUND ( 'NONE', #252, .T. ) ;
#341 = CARTESIAN_POINT ( 'NONE',  ( 500.0000000000000000, 350.0000000000000000, -499.9999999999999432 ) ) ;
#342 = EDGE_LOOP ( 'NONE', ( #3, #582, #317, #247, #494, #687 ) ) ;
#343 = LINE ( 'NONE', #137, #152 ) ;
#344 = DIRECTION ( 'NONE',  ( -0.000000000000000000, 0.000000000000000000, 1.000000000000000000 ) ) ;
#345 = ORIENTED_EDGE ( 'NONE', *, *, #697, .T. ) ;
#346 = FILL_AREA_STYLE_COLOUR ( '', #531 ) ;
#347 = DIRECTION ( 'NONE',  ( 1.000000000000000000, 0.000000000000000000, -0.000000000000000000 ) ) ;
#348 = VERTEX_POINT ( 'NONE', #622 ) ;
#349 = LINE ( 'NONE', #719, #375 ) ;
#350 = ADVANCED_FACE ( 'NONE', ( #361 ), #245, .T. ) ;
#351 = FILL_AREA_STYLE ('',( #346 ) ) ;
#352 = DIRECTION ( 'NONE',  ( 0.000000000000000000, 0.000000000000000000, 1.000000000000000000 ) ) ;
#353 = ORIENTED_EDGE ( 'NONE', *, *, #224, .T. ) ;
#354 = PLANE ( 'NONE',  #447 ) ;
#355 = EDGE_CURVE ( 'NONE', #297, #230, #37, .T. ) ;
#356 = PLANE ( 'NONE',  #515 ) ;
#357 = VECTOR ( 'NONE', #646, 1000.000000000000000 ) ;
#358 = PLANE ( 'NONE',  #663 ) ;
#359 = ORIENTED_EDGE ( 'NONE', *, *, #1, .F. ) ;
#360 = DIRECTION ( 'NONE',  ( 0.000000000000000000, 1.000000000000000000, 0.000000000000000000 ) ) ;
#361 = FACE_OUTER_BOUND ( 'NONE', #459, .T. ) ;
#362 = EDGE_CURVE ( 'NONE', #746, #522, #302, .T. ) ;
#363 = PLANE ( 'NONE',  #656 ) ;
#364 = VECTOR ( 'NONE', #593, 1000.000000000000000 ) ;
#365 = PLANE ( 'NONE',  #728 ) ;
#366 = VECTOR ( 'NONE', #153, 1000.000000000000000 ) ;
#367 = LINE ( 'NONE', #571, #70 ) ;
#368 = ORIENTED_EDGE ( 'NONE', *, *, #686, .T. ) ;
#369 = CARTESIAN_POINT ( 'NONE',  ( -244.9999999999996021, -20.00000000000000000, 244.9999999999998863 ) ) ;
#370 = DIRECTION ( 'NONE',  ( -0.000000000000000000, 1.000000000000000000, -0.000000000000000000 ) ) ;
#371 = CARTESIAN_POINT ( 'NONE',  ( -244.9999999999997158, 0.000000000000000000, -244.9999999999995453 ) ) ;
#372 = SURFACE_STYLE_USAGE ( .BOTH. , #176 ) ;
#373 = VERTEX_POINT ( 'NONE', #818 ) ;
#374 = ORIENTED_EDGE ( 'NONE', *, *, #48, .T. ) ;
#375 = VECTOR ( 'NONE', #136, 1000.000000000000000 ) ;
#376 = EDGE_CURVE ( 'NONE', #554, #373, #228, .T. ) ;
#377 = DIRECTION ( 'NONE',  ( -3.700743415417188139E-16, 0.000000000000000000, 1.000000000000000000 ) ) ;
#378 = ORIENTED_EDGE ( 'NONE', *, *, #439, .T. ) ;
#379 = ORIENTED_EDGE ( 'NONE', *, *, #117, .T. ) ;
#380 = LINE ( 'NONE', #642, #766 ) ;
#381 = LINE ( 'NONE', #337, #357 ) ;
#382 = APPLICATION_CONTEXT ( 'automotive_design' ) ;
#383 = LINE ( 'NONE', #712, #364 ) ;
#384 = DIRECTION ( 'NONE',  ( -7.401486830834378251E-16, 0.000000000000000000, -1.000000000000000000 ) ) ;
#385 = EDGE_CURVE ( 'NONE', #45, #91, #753, .T. ) ;
#386 = VERTEX_POINT ( 'NONE', #163 ) ;
#387 = DIRECTION ( 'NONE',  ( 0.000000000000000000, 0.000000000000000000, -1.000000000000000000 ) ) ;
#388 = LINE ( 'NONE', #650, #680 ) ;
#389 = ADVANCED_FACE ( 'NONE', ( #745 ), #356, .F. ) ;
#390 = ORIENTED_EDGE ( 'NONE', *, *, #395, .T. ) ;
#391 = VECTOR ( 'NONE', #314, 1000.000000000000000 ) ;
#392 = DIRECTION ( 'NONE',  ( -1.000000000000000000, 0.000000000000000000, -1.480297366166875453E-15 ) ) ;
#393 = VERTEX_POINT ( 'NONE', #171 ) ;
#394 = VECTOR ( 'NONE', #418, 1000.000000000000000 ) ;
#395 = EDGE_CURVE ( 'NONE', #56, #170, #94, .T. ) ;
#396 = FACE_OUTER_BOUND ( 'NONE', #597, .T. ) ;
#397 = CARTESIAN_POINT ( 'NONE',  ( -319.9999999999996021, -20.00000000000000000, 244.9999999999998863 ) ) ;
#398 = EDGE_LOOP ( 'NONE', ( #773, #416, #321, #727 ) ) ;
#399 = VECTOR ( 'NONE', #830, 1000.000000000000000 ) ;
#400 = DIRECTION ( 'NONE',  ( 1.000000000000000000, 0.000000000000000000, -1.665334536937734564E-16 ) ) ;
#401 = EDGE_CURVE ( 'NONE', #124, #287, #423, .T. ) ;
#402 = VECTOR ( 'NONE', #716, 1000.000000000000000 ) ;
#403 = VECTOR ( 'NONE', #18, 1000.000000000000000 ) ;
#404 = CARTESIAN_POINT ( 'NONE',  ( 319.9999999999998295, -20.00000000000000000, 244.9999999999996021 ) ) ;
#405 = CARTESIAN_POINT ( 'NONE',  ( 244.9999999999994316, -20.00000000000000000, -244.9999999999994316 ) ) ;
#406 = ORIENTED_EDGE ( 'NONE', *, *, #376, .F. ) ;
#407 = DIRECTION ( 'NONE',  ( -1.480297366166875256E-15, -0.000000000000000000, 1.000000000000000000 ) ) ;
#408 = DIRECTION ( 'NONE',  ( -0.8660254037844382635, 0.5000000000000007772, 0.000000000000000000 ) ) ;
#409 = ORIENTED_EDGE ( 'NONE', *, *, #821, .T. ) ;
#410 = DIRECTION ( 'NONE',  ( -1.000000000000000000, 0.000000000000000000, -7.401486830834381209E-16 ) ) ;
#411 = DIRECTION ( 'NONE',  ( 1.000000000000000000, 0.000000000000000000, 7.401486830834378251E-16 ) ) ;
#412 = VERTEX_POINT ( 'NONE', #60 ) ;
#413 = EDGE_CURVE ( 'NONE', #283, #82, #463, .T. ) ;
#414 = SURFACE_STYLE_FILL_AREA ( #351 ) ;
#415 = CARTESIAN_POINT ( 'NONE',  ( -244.9999999999996021, -20.00000000000000000, 244.9999999999998863 ) ) ;
#416 = ORIENTED_EDGE ( 'NONE', *, *, #831, .T. ) ;
#417 = LINE ( 'NONE', #288, #598 ) ;
#418 = DIRECTION ( 'NONE',  ( 1.000000000000000000, 0.000000000000000000, -7.401486830834381209E-16 ) ) ;
#419 = PLANE ( 'NONE',  #812 ) ;
#420 = ORIENTED_EDGE ( 'NONE', *, *, #395, .F. ) ;
#421 = CARTESIAN_POINT ( 'NONE',  ( 500.0000000000000000, 311.7691453623978646, -499.9999999999999432 ) ) ;
#422 = EDGE_CURVE ( 'NONE', #695, #592, #586, .T. ) ;
#423 = LINE ( 'NONE', #432, #840 ) ;
#424 = EDGE_LOOP ( 'NONE', ( #479, #378, #580, #379 ) ) ;
#425 = LINE ( 'NONE', #683, #336 ) ;
#426 = DIRECTION ( 'NONE',  ( -1.000000000000000000, 0.000000000000000000, 0.000000000000000000 ) ) ;
#427 = EDGE_CURVE ( 'NONE', #170, #287, #846, .T. ) ;
#428 =( LENGTH_UNIT ( ) NAMED_UNIT ( * ) SI_UNIT ( .MILLI., .METRE. ) );
#429 = ORIENTED_EDGE ( 'NONE', *, *, #355, .F. ) ;
#430 = CARTESIAN_POINT ( 'NONE',  ( -499.9999999999999432, 350.0000000000000000, 500.0000000000002274 ) ) ;
#431 =( GEOMETRIC_REPRESENTATION_CONTEXT ( 3 ) GLOBAL_UNCERTAINTY_ASSIGNED_CONTEXT ( ( #628 ) ) GLOBAL_UNIT_ASSIGNED_CONTEXT ( ( #39, #33, #49 ) ) REPRESENTATION_CONTEXT ( 'NONE', 'WORKASPACE' ) );
#432 = CARTESIAN_POINT ( 'NONE',  ( -319.9999999999996021, -20.00000000000000000, 244.9999999999998863 ) ) ;
#433 = LINE ( 'NONE', #104, #790 ) ;
#434 = EDGE_LOOP ( 'NONE', ( #786, #13, #532, #160 ) ) ;
#435 = CARTESIAN_POINT ( 'NONE',  ( -244.9999999999997158, -20.00000000000000000, -244.9999999999995453 ) ) ;
#436 =( NAMED_UNIT ( * ) SI_UNIT ( $, .STERADIAN. ) SOLID_ANGLE_UNIT ( ) );
#437 = AXIS2_PLACEMENT_3D ( 'NONE', #257, #706, #54 ) ;
#438 = DIRECTION ( 'NONE',  ( 0.000000000000000000, -0.000000000000000000, -1.000000000000000000 ) ) ;
#439 = EDGE_CURVE ( 'NONE', #708, #324, #518, .T. ) ;
#440 = ORIENTED_EDGE ( 'NONE', *, *, #131, .T. ) ;
#441 = CARTESIAN_POINT ( 'NONE',  ( -319.9999999999996021, 0.000000000000000000, 244.9999999999998863 ) ) ;
#442 = CARTESIAN_POINT ( 'NONE',  ( -499.9999999999999432, 311.7691453623978646, 500.0000000000002274 ) ) ;
#443 = VECTOR ( 'NONE', #44, 1000.000000000000000 ) ;
#444 = ORIENTED_EDGE ( 'NONE', *, *, #439, .F. ) ;
#445 = ORIENTED_EDGE ( 'NONE', *, *, #422, .F. ) ;
#446 = VECTOR ( 'NONE', #617, 1000.000000000000000 ) ;
#447 = AXIS2_PLACEMENT_3D ( 'NONE', #156, #564, #23 ) ;
#448 = PRODUCT ( 'mesa_MueblesDico_MOC94387S1', 'mesa_MueblesDico_MOC94387S1', '', ( #313 ) ) ;
#449 = DIRECTION ( 'NONE',  ( 0.000000000000000000, 0.000000000000000000, -1.000000000000000000 ) ) ;
#450 = FACE_OUTER_BOUND ( 'NONE', #682, .T. ) ;
#451 = ORIENTED_EDGE ( 'NONE', *, *, #276, .F. ) ;
#452 = ORIENTED_EDGE ( 'NONE', *, *, #491, .F. ) ;
#453 = DIRECTION ( 'NONE',  ( 1.000000000000000000, -0.000000000000000000, 0.000000000000000000 ) ) ;
#454 = EDGE_CURVE ( 'NONE', #808, #695, #383, .T. ) ;
#455 = CARTESIAN_POINT ( 'NONE',  ( 244.9999999999999716, 0.000000000000000000, 319.9999999999996589 ) ) ;
#456 = ORIENTED_EDGE ( 'NONE', *, *, #604, .T. ) ;
#457 = PLANE ( 'NONE',  #225 ) ;
#458 = PLANE ( 'NONE',  #249 ) ;
#459 = EDGE_LOOP ( 'NONE', ( #440, #58, #696, #498 ) ) ;
#460 = CARTESIAN_POINT ( 'NONE',  ( 319.9999999999994884, -20.00000000000000000, -319.9999999999993747 ) ) ;
#461 = DIRECTION ( 'NONE',  ( 0.000000000000000000, 0.000000000000000000, -1.000000000000000000 ) ) ;
#462 = ORIENTED_EDGE ( 'NONE', *, *, #618, .F. ) ;
#463 = LINE ( 'NONE', #320, #623 ) ;
#464 = CARTESIAN_POINT ( 'NONE',  ( 319.9999999999996589, 0.000000000000000000, 0.000000000000000000 ) ) ;
#465 = ORIENTED_EDGE ( 'NONE', *, *, #157, .F. ) ;
#466 = EDGE_CURVE ( 'NONE', #130, #124, #53, .T. ) ;
#467 = AXIS2_PLACEMENT_3D ( 'NONE', #143, #89, #8 ) ;
#468 = CARTESIAN_POINT ( 'NONE',  ( 500.0000000000000000, 350.0000000000000000, 500.0000000000001137 ) ) ;
#469 = DIRECTION ( 'NONE',  ( -1.000000000000000000, 0.000000000000000000, 0.000000000000000000 ) ) ;
#470 = ORIENTED_EDGE ( 'NONE', *, *, #552, .F. ) ;
#471 = APPLICATION_CONTEXT ( 'automotive_design' ) ;
#472 = VECTOR ( 'NONE', #774, 1000.000000000000000 ) ;
#473 = DIRECTION ( 'NONE',  ( 7.401486830834381209E-16, 0.000000000000000000, -1.000000000000000000 ) ) ;
#474 = LINE ( 'NONE', #341, #366 ) ;
#475 = ORIENTED_EDGE ( 'NONE', *, *, #144, .F. ) ;
#476 = PLANE ( 'NONE',  #221 ) ;
#477 = EDGE_CURVE ( 'NONE', #324, #386, #125, .T. ) ;
#478 = FACE_OUTER_BOUND ( 'NONE', #542, .T. ) ;
#479 = ORIENTED_EDGE ( 'NONE', *, *, #806, .T. ) ;
#480 = DIRECTION ( 'NONE',  ( 0.000000000000000000, 1.000000000000000000, 0.000000000000000000 ) ) ;
#481 = PRODUCT_DEFINITION ( 'UNKNOWN', '', #301, #572 ) ;
#482 = CARTESIAN_POINT ( 'NONE',  ( -319.9999999999996589, -20.00000000000000000, -244.9999999999995453 ) ) ;
#483 = ORIENTED_EDGE ( 'NONE', *, *, #316, .T. ) ;
#484 = DIRECTION ( 'NONE',  ( -1.000000000000000000, 0.000000000000000000, 1.665334536937734564E-16 ) ) ;
#485 = VECTOR ( 'NONE', #793, 1000.000000000000000 ) ;
#486 = SURFACE_SIDE_STYLE ('',( #414 ) ) ;
#487 = VECTOR ( 'NONE', #90, 1000.000000000000000 ) ;
#488 = LINE ( 'NONE', #415, #59 ) ;
#489 = VERTEX_POINT ( 'NONE', #784 ) ;
#490 = DIRECTION ( 'NONE',  ( -0.000000000000000000, 1.000000000000000000, -0.000000000000000000 ) ) ;
#491 = EDGE_CURVE ( 'NONE', #758, #522, #120, .T. ) ;
#492 = LINE ( 'NONE', #371, #738 ) ;
#493 =( NAMED_UNIT ( * ) PLANE_ANGLE_UNIT ( ) SI_UNIT ( $, .RADIAN. ) );
#494 = ORIENTED_EDGE ( 'NONE', *, *, #535, .F. ) ;
#495 = CARTESIAN_POINT ( 'NONE',  ( 500.0000000000000000, 350.0000000000000000, 500.0000000000001137 ) ) ;
#496 = EDGE_CURVE ( 'NONE', #722, #607, #578, .T. ) ;
#497 = DIRECTION ( 'NONE',  ( 0.000000000000000000, 1.000000000000000000, 0.000000000000000000 ) ) ;
#498 = ORIENTED_EDGE ( 'NONE', *, *, #817, .T. ) ;
#499 = LINE ( 'NONE', #430, #516 ) ;
#500 = DIRECTION ( 'NONE',  ( 1.480297366166875256E-15, 0.000000000000000000, 1.000000000000000000 ) ) ;
#501 = LINE ( 'NONE', #442, #587 ) ;
#502 = DIRECTION ( 'NONE',  ( 0.000000000000000000, -1.000000000000000000, 0.000000000000000000 ) ) ;
#503 = ORIENTED_EDGE ( 'NONE', *, *, #754, .F. ) ;
#504 = CARTESIAN_POINT ( 'NONE',  ( -319.9999999999996589, -20.00000000000000000, -319.9999999999995453 ) ) ;
#505 = EDGE_CURVE ( 'NONE', #230, #56, #779, .T. ) ;
#506 = CARTESIAN_POINT ( 'NONE',  ( 0.000000000000000000, -20.00000000000000000, 0.000000000000000000 ) ) ;
#507 = ORIENTED_EDGE ( 'NONE', *, *, #413, .F. ) ;
#508 = LINE ( 'NONE', #435, #295 ) ;
#509 = AXIS2_PLACEMENT_3D ( 'NONE', #506, #177, #438 ) ;
#510 = VERTEX_POINT ( 'NONE', #250 ) ;
#511 = CARTESIAN_POINT ( 'NONE',  ( 299.9999999999995453, -34.64101615137771262, -299.9999999999994884 ) ) ;
#512 = DIRECTION ( 'NONE',  ( 1.000000000000000000, 0.000000000000000000, -7.401486830834381209E-16 ) ) ;
#513 = ORIENTED_EDGE ( 'NONE', *, *, #427, .F. ) ;
#514 = VERTEX_POINT ( 'NONE', #256 ) ;
#515 = AXIS2_PLACEMENT_3D ( 'NONE', #306, #568, #635 ) ;
#516 = VECTOR ( 'NONE', #101, 1000.000000000000000 ) ;
#517 = EDGE_CURVE ( 'NONE', #240, #746, #260, .T. ) ;
#518 = LINE ( 'NONE', #654, #138 ) ;
#519 = VECTOR ( 'NONE', #668, 1000.000000000000000 ) ;
#520 = UNCERTAINTY_MEASURE_WITH_UNIT (LENGTH_MEASURE( 1.000000000000000082E-05 ), #428, 'distance_accuracy_value', 'NONE');
#521 = DIRECTION ( 'NONE',  ( -0.000000000000000000, 1.000000000000000000, -0.000000000000000000 ) ) ;
#522 = VERTEX_POINT ( 'NONE', #771 ) ;
#523 = ADVANCED_FACE ( 'NONE', ( #583 ), #638, .F. ) ;
#524 = DIRECTION ( 'NONE',  ( -9.614813431917815384E-17, 0.5000000000000007772, -0.8660254037844382635 ) ) ;
#525 = DIRECTION ( 'NONE',  ( 7.401486830834381209E-16, 0.000000000000000000, 1.000000000000000000 ) ) ;
#526 = CARTESIAN_POINT ( 'NONE',  ( -244.9999999999997158, -20.00000000000000000, -244.9999999999995453 ) ) ;
#527 = ORIENTED_EDGE ( 'NONE', *, *, #748, .F. ) ;
#528 = DIRECTION ( 'NONE',  ( -1.110223024625156540E-15, -0.000000000000000000, -1.000000000000000000 ) ) ;
#529 = CARTESIAN_POINT ( 'NONE',  ( 244.9999999999999716, -20.00000000000000000, 319.9999999999996589 ) ) ;
#530 = LINE ( 'NONE', #464, #92 ) ;
#531 = COLOUR_RGB ( '',1.000000000000000000, 1.000000000000000000, 1.000000000000000000 ) ;
#532 = ORIENTED_EDGE ( 'NONE', *, *, #714, .F. ) ;
#533 = AXIS2_PLACEMENT_3D ( 'NONE', #549, #360, #679 ) ;
#534 = CARTESIAN_POINT ( 'NONE',  ( -244.9999999999997442, -20.00000000000000000, -319.9999999999995453 ) ) ;
#535 = EDGE_CURVE ( 'NONE', #607, #386, #191, .T. ) ;
#536 = ORIENTED_EDGE ( 'NONE', *, *, #199, .F. ) ;
#537 = DIRECTION ( 'NONE',  ( -1.000000000000000000, 0.000000000000000000, 1.110223024625156540E-16 ) ) ;
#538 = LINE ( 'NONE', #213, #596 ) ;
#539 = ORIENTED_EDGE ( 'NONE', *, *, #761, .T. ) ;
#540 = CARTESIAN_POINT ( 'NONE',  ( 319.9999999999993747, -20.00000000000000000, -244.9999999999993747 ) ) ;
#541 = DIRECTION ( 'NONE',  ( 3.700743415417188632E-16, 0.000000000000000000, 1.000000000000000000 ) ) ;
#542 = EDGE_LOOP ( 'NONE', ( #353, #610, #332, #693 ) ) ;
#543 = ADVANCED_FACE ( 'NONE', ( #649 ), #457, .F. ) ;
#544 = CARTESIAN_POINT ( 'NONE',  ( -244.9999999999997158, -20.00000000000000000, -244.9999999999995453 ) ) ;
#545 = ORIENTED_EDGE ( 'NONE', *, *, #207, .T. ) ;
#546 = CARTESIAN_POINT ( 'NONE',  ( 244.9999999999994316, 0.000000000000000000, -244.9999999999994316 ) ) ;
#547 = PLANE ( 'NONE',  #299 ) ;
#548 = ORIENTED_EDGE ( 'NONE', *, *, #570, .F. ) ;
#549 = CARTESIAN_POINT ( 'NONE',  ( 0.000000000000000000, 0.000000000000000000, 0.000000000000000000 ) ) ;
#550 = VECTOR ( 'NONE', #781, 1000.000000000000000 ) ;
#551 = FACE_OUTER_BOUND ( 'NONE', #211, .T. ) ;
#552 = EDGE_CURVE ( 'NONE', #182, #393, #705, .T. ) ;
#553 = FACE_OUTER_BOUND ( 'NONE', #733, .T. ) ;
#554 = VERTEX_POINT ( 'NONE', #116 ) ;
#555 = CARTESIAN_POINT ( 'NONE',  ( -319.9999999999996589, -20.00000000000000000, -244.9999999999995453 ) ) ;
#556 = VECTOR ( 'NONE', #813, 1000.000000000000000 ) ;
#557 = CARTESIAN_POINT ( 'NONE',  ( 0.000000000000000000, 350.0000000000000000, 0.000000000000000000 ) ) ;
#558 = AXIS2_PLACEMENT_3D ( 'NONE', #834, #524, #849 ) ;
#559 = VECTOR ( 'NONE', #670, 1000.000000000000000 ) ;
#560 = DIRECTION ( 'NONE',  ( -7.401486830834378251E-16, 0.000000000000000000, 1.000000000000000000 ) ) ;
#561 = ORIENTED_EDGE ( 'NONE', *, *, #385, .T. ) ;
#562 = EDGE_CURVE ( 'NONE', #170, #489, #380, .T. ) ;
#563 = STYLED_ITEM ( 'NONE', ( #827 ), #269 ) ;
#564 = DIRECTION ( 'NONE',  ( -1.000000000000000000, 0.000000000000000000, -3.700743415417188632E-16 ) ) ;
#565 = CARTESIAN_POINT ( 'NONE',  ( -244.9999999999996021, -20.00000000000000000, 244.9999999999998863 ) ) ;
#566 = ORIENTED_EDGE ( 'NONE', *, *, #325, .F. ) ;
#567 = CARTESIAN_POINT ( 'NONE',  ( -5.329070518200743190E-14, 0.000000000000000000, -319.9999999999995453 ) ) ;
#568 = DIRECTION ( 'NONE',  ( 1.000000000000000000, 0.000000000000000000, -0.000000000000000000 ) ) ;
#569 = CARTESIAN_POINT ( 'NONE',  ( 0.000000000000000000, -20.00000000000000000, 0.000000000000000000 ) ) ;
#570 = EDGE_CURVE ( 'NONE', #592, #607, #322, .T. ) ;
#571 = CARTESIAN_POINT ( 'NONE',  ( -319.9999999999996589, 0.000000000000000000, -244.9999999999995453 ) ) ;
#572 = PRODUCT_DEFINITION_CONTEXT ( 'detailed design', #471, 'design' ) ;
#573 = FACE_OUTER_BOUND ( 'NONE', #244, .T. ) ;
#574 = ORIENTED_EDGE ( 'NONE', *, *, #184, .F. ) ;
#575 = CARTESIAN_POINT ( 'NONE',  ( -244.9999999999996305, 0.000000000000000000, 319.9999999999998863 ) ) ;
#576 = FILL_AREA_STYLE ('',( #690 ) ) ;
#577 = ORIENTED_EDGE ( 'NONE', *, *, #276, .T. ) ;
#578 = LINE ( 'NONE', #267, #335 ) ;
#579 = VECTOR ( 'NONE', #655, 1000.000000000000000 ) ;
#580 = ORIENTED_EDGE ( 'NONE', *, *, #184, .T. ) ;
#581 = EDGE_CURVE ( 'NONE', #758, #182, #128, .T. ) ;
#582 = ORIENTED_EDGE ( 'NONE', *, *, #362, .F. ) ;
#583 = FACE_OUTER_BOUND ( 'NONE', #279, .T. ) ;
#584 = LINE ( 'NONE', #323, #205 ) ;
#585 = VECTOR ( 'NONE', #684, 1000.000000000000000 ) ;
#586 = LINE ( 'NONE', #838, #29 ) ;
#587 = VECTOR ( 'NONE', #233, 1000.000000000000000 ) ;
#588 = LINE ( 'NONE', #129, #579 ) ;
#589 = ORIENTED_EDGE ( 'NONE', *, *, #50, .T. ) ;
#590 = DIRECTION ( 'NONE',  ( 0.000000000000000000, 0.000000000000000000, 1.000000000000000000 ) ) ;
#591 = DIRECTION ( 'NONE',  ( -1.000000000000000000, 0.000000000000000000, 7.401486830834378251E-16 ) ) ;
#592 = VERTEX_POINT ( 'NONE', #611 ) ;
#593 = DIRECTION ( 'NONE',  ( 1.000000000000000000, -0.000000000000000000, -1.110223024625156540E-16 ) ) ;
#594 = ADVANCED_FACE ( 'NONE', ( #658 ), #365, .F. ) ;
#595 = CARTESIAN_POINT ( 'NONE',  ( 244.9999999999998863, -20.00000000000000000, 244.9999999999996589 ) ) ;
#596 = VECTOR ( 'NONE', #789, 1000.000000000000000 ) ;
#597 = EDGE_LOOP ( 'NONE', ( #390, #702, #667, #261 ) ) ;
#598 = VECTOR ( 'NONE', #490, 1000.000000000000000 ) ;
#599 = CARTESIAN_POINT ( 'NONE',  ( 244.9999999999999716, -20.00000000000000000, 319.9999999999996589 ) ) ;
#600 = EDGE_CURVE ( 'NONE', #287, #230, #739, .T. ) ;
#601 = ORIENTED_EDGE ( 'NONE', *, *, #224, .F. ) ;
#602 = CARTESIAN_POINT ( 'NONE',  ( 319.9999999999996589, 0.000000000000000000, 244.9999999999996021 ) ) ;
#603 = EDGE_LOOP ( 'NONE', ( #52, #762, #51, #174 ) ) ;
#604 = EDGE_CURVE ( 'NONE', #240, #82, #28, .T. ) ;
#605 =( NAMED_UNIT ( * ) SI_UNIT ( $, .STERADIAN. ) SOLID_ANGLE_UNIT ( ) );
#606 = CARTESIAN_POINT ( 'NONE',  ( 319.9999999999999432, -20.00000000000000000, 319.9999999999996021 ) ) ;
#607 = VERTEX_POINT ( 'NONE', #615 ) ;
#608 =( LENGTH_UNIT ( ) NAMED_UNIT ( * ) SI_UNIT ( .MILLI., .METRE. ) );
#609 = PLANE ( 'NONE',  #186 ) ;
#610 = ORIENTED_EDGE ( 'NONE', *, *, #280, .F. ) ;
#611 = CARTESIAN_POINT ( 'NONE',  ( 500.0000000000000000, 350.0000000000000000, -499.9999999999999432 ) ) ;
#612 = DIRECTION ( 'NONE',  ( 1.000000000000000000, 0.000000000000000000, 0.000000000000000000 ) ) ;
#613 = FACE_OUTER_BOUND ( 'NONE', #342, .T. ) ;
#614 = ORIENTED_EDGE ( 'NONE', *, *, #562, .T. ) ;
#615 = CARTESIAN_POINT ( 'NONE',  ( 500.0000000000000000, 311.7691453623978646, -499.9999999999999432 ) ) ;
#616 = AXIS2_PLACEMENT_3D ( 'NONE', #192, #384, #591 ) ;
#617 = DIRECTION ( 'NONE',  ( -1.000000000000000000, 0.000000000000000000, 0.000000000000000000 ) ) ;
#618 = EDGE_CURVE ( 'NONE', #778, #707, #417, .T. ) ;
#619 = DIRECTION ( 'NONE',  ( 1.110223024625156540E-15, 0.000000000000000000, -1.000000000000000000 ) ) ;
#620 = ORIENTED_EDGE ( 'NONE', *, *, #19, .F. ) ;
#621 = DIRECTION ( 'NONE',  ( -1.000000000000000000, 0.000000000000000000, 1.665334536937734564E-16 ) ) ;
#622 = CARTESIAN_POINT ( 'NONE',  ( 244.9999999999998863, 0.000000000000000000, 244.9999999999996589 ) ) ;
#623 = VECTOR ( 'NONE', #843, 1000.000000000000000 ) ;
#624 = FACE_OUTER_BOUND ( 'NONE', #424, .T. ) ;
#625 = AXIS2_PLACEMENT_3D ( 'NONE', #108, #243, #164 ) ;
#626 = PLANE ( 'NONE',  #767 ) ;
#627 = LINE ( 'NONE', #103, #399 ) ;
#628 = UNCERTAINTY_MEASURE_WITH_UNIT (LENGTH_MEASURE( 1.000000000000000082E-05 ), #39, 'distance_accuracy_value', 'NONE');
#629 = ORIENTED_EDGE ( 'NONE', *, *, #305, .T. ) ;
#630 = ADVANCED_FACE ( 'NONE', ( #675 ), #354, .F. ) ;
#631 = CARTESIAN_POINT ( 'NONE',  ( 244.9999999999998863, -20.00000000000000000, 244.9999999999996589 ) ) ;
#632 = LINE ( 'NONE', #40, #65 ) ;
#633 = ADVANCED_FACE ( 'NONE', ( #396 ), #626, .F. ) ;
#634 = VECTOR ( 'NONE', #500, 1000.000000000000000 ) ;
#635 = DIRECTION ( 'NONE',  ( -0.000000000000000000, 0.000000000000000000, -1.000000000000000000 ) ) ;
#636 = APPLICATION_PROTOCOL_DEFINITION ( 'draft international standard', 'automotive_design', 1998, #382 ) ;
#637 = VECTOR ( 'NONE', #801, 1000.000000000000000 ) ;
#638 = PLANE ( 'NONE',  #558 ) ;
#639 = ADVANCED_FACE ( 'NONE', ( #810 ), #743, .F. ) ;
#640 = SURFACE_STYLE_FILL_AREA ( #576 ) ;
#641 = ORIENTED_EDGE ( 'NONE', *, *, #105, .T. ) ;
#642 = CARTESIAN_POINT ( 'NONE',  ( -299.9999999999996021, -34.64101615137771262, 299.9999999999997158 ) ) ;
#643 = EDGE_CURVE ( 'NONE', #91, #510, #349, .T. ) ;
#644 = PLANE ( 'NONE',  #437 ) ;
#645 = DIRECTION ( 'NONE',  ( -0.000000000000000000, 1.000000000000000000, -0.000000000000000000 ) ) ;
#646 = DIRECTION ( 'NONE',  ( -0.000000000000000000, 1.000000000000000000, -0.000000000000000000 ) ) ;
#647 = DIRECTION ( 'NONE',  ( -1.000000000000000000, 0.000000000000000000, 0.000000000000000000 ) ) ;
#648 = ORIENTED_EDGE ( 'NONE', *, *, #290, .T. ) ;
#649 = FACE_OUTER_BOUND ( 'NONE', #434, .T. ) ;
#650 = CARTESIAN_POINT ( 'NONE',  ( -319.9999999999996021, 0.000000000000000000, 0.000000000000000000 ) ) ;
#651 = FACE_OUTER_BOUND ( 'NONE', #196, .T. ) ;
#652 = ORIENTED_EDGE ( 'NONE', *, *, #754, .T. ) ;
#653 = EDGE_CURVE ( 'NONE', #510, #707, #304, .T. ) ;
#654 = CARTESIAN_POINT ( 'NONE',  ( 244.9999999999995168, -20.00000000000000000, -319.9999999999994316 ) ) ;
#655 = DIRECTION ( 'NONE',  ( -0.000000000000000000, -0.000000000000000000, 1.000000000000000000 ) ) ;
#656 = AXIS2_PLACEMENT_3D ( 'NONE', #173, #100, #691 ) ;
#657 = ORIENTED_EDGE ( 'NONE', *, *, #477, .F. ) ;
#658 = FACE_OUTER_BOUND ( 'NONE', #168, .T. ) ;
#659 = CARTESIAN_POINT ( 'NONE',  ( -244.9999999999996305, -20.00000000000000000, 319.9999999999998863 ) ) ;
#660 =( GEOMETRIC_REPRESENTATION_CONTEXT ( 3 ) GLOBAL_UNCERTAINTY_ASSIGNED_CONTEXT ( ( #242 ) ) GLOBAL_UNIT_ASSIGNED_CONTEXT ( ( #608, #80, #605 ) ) REPRESENTATION_CONTEXT ( 'NONE', 'WORKASPACE' ) );
#661 = ORIENTED_EDGE ( 'NONE', *, *, #842, .F. ) ;
#662 = VECTOR ( 'NONE', #377, 1000.000000000000000 ) ;
#663 = AXIS2_PLACEMENT_3D ( 'NONE', #26, #666, #807 ) ;
#664 = FACE_OUTER_BOUND ( 'NONE', #115, .T. ) ;
#665 = ADVANCED_FACE ( 'NONE', ( #724 ), #231, .F. ) ;
#666 = DIRECTION ( 'NONE',  ( -1.000000000000000000, 0.000000000000000000, 1.480297366166875453E-15 ) ) ;
#667 = ORIENTED_EDGE ( 'NONE', *, *, #305, .F. ) ;
#668 = DIRECTION ( 'NONE',  ( 1.110223024625156540E-15, 0.000000000000000000, -1.000000000000000000 ) ) ;
#669 = ORIENTED_EDGE ( 'NONE', *, *, #385, .F. ) ;
#670 = DIRECTION ( 'NONE',  ( 0.000000000000000000, 0.000000000000000000, -1.000000000000000000 ) ) ;
#671 = ORIENTED_EDGE ( 'NONE', *, *, #25, .T. ) ;
#672 = PLANE ( 'NONE',  #850 ) ;
#673 = LINE ( 'NONE', #735, #559 ) ;
#674 = ORIENTED_EDGE ( 'NONE', *, *, #692, .F. ) ;
#675 = FACE_OUTER_BOUND ( 'NONE', #200, .T. ) ;
#676 = EDGE_CURVE ( 'NONE', #135, #348, #747, .T. ) ;
#677 = FACE_OUTER_BOUND ( 'NONE', #795, .T. ) ;
#678 = VERTEX_POINT ( 'NONE', #555 ) ;
#679 = DIRECTION ( 'NONE',  ( 0.000000000000000000, -0.000000000000000000, 1.000000000000000000 ) ) ;
#680 = VECTOR ( 'NONE', #461, 1000.000000000000000 ) ;
#681 = CARTESIAN_POINT ( 'NONE',  ( 319.9999999999994884, -20.00000000000000000, -319.9999999999993747 ) ) ;
#682 = EDGE_LOOP ( 'NONE', ( #848, #86, #470, #146 ) ) ;
#683 = CARTESIAN_POINT ( 'NONE',  ( -299.9999999999994884, -34.64101615137759893, -299.9999999999993747 ) ) ;
#684 = DIRECTION ( 'NONE',  ( -0.000000000000000000, -1.000000000000000000, -0.000000000000000000 ) ) ;
#685 = VECTOR ( 'NONE', #87, 1000.000000000000000 ) ;
#686 = EDGE_CURVE ( 'NONE', #607, #373, #166, .T. ) ;
#687 = ORIENTED_EDGE ( 'NONE', *, *, #496, .F. ) ;
#688 = CARTESIAN_POINT ( 'NONE',  ( 244.9999999999995168, -20.00000000000000000, -319.9999999999994316 ) ) ;
#689 = CARTESIAN_POINT ( 'NONE',  ( 244.9999999999994316, -20.00000000000000000, -244.9999999999994316 ) ) ;
#690 = FILL_AREA_STYLE_COLOUR ( '', #258 ) ;
#691 = DIRECTION ( 'NONE',  ( 1.000000000000000000, 0.000000000000000000, -0.000000000000000000 ) ) ;
#692 = EDGE_CURVE ( 'NONE', #510, #711, #788, .T. ) ;
#693 = ORIENTED_EDGE ( 'NONE', *, *, #413, .T. ) ;
#694 = DIRECTION ( 'NONE',  ( -1.000000000000000000, 0.000000000000000000, 0.000000000000000000 ) ) ;
#695 = VERTEX_POINT ( 'NONE', #468 ) ;
#696 = ORIENTED_EDGE ( 'NONE', *, *, #422, .T. ) ;
#697 = EDGE_CURVE ( 'NONE', #373, #91, #425, .T. ) ;
#698 = MECHANICAL_DESIGN_GEOMETRIC_PRESENTATION_REPRESENTATION (  '', ( #42 ), #660 ) ;
#699 = CARTESIAN_POINT ( 'NONE',  ( 319.9999999999998295, 0.000000000000000000, 244.9999999999996021 ) ) ;
#700 = VECTOR ( 'NONE', #175, 1000.000000000000000 ) ;
#701 = VECTOR ( 'NONE', #227, 1000.000000000000000 ) ;
#702 = ORIENTED_EDGE ( 'NONE', *, *, #95, .F. ) ;
#703 = EDGE_LOOP ( 'NONE', ( #671, #657, #444, #259 ) ) ;
#704 = ADVANCED_FACE ( 'NONE', ( #664 ), #83, .F. ) ;
#705 = LINE ( 'NONE', #262, #298 ) ;
#706 = DIRECTION ( 'NONE',  ( 1.000000000000000000, 0.000000000000000000, -1.110223024625156540E-15 ) ) ;
#707 = VERTEX_POINT ( 'NONE', #93 ) ;
#708 = VERTEX_POINT ( 'NONE', #688 ) ;
#709 = DIRECTION ( 'NONE',  ( -0.4472135954999584273, 0.7745966692414828492, 0.4472135954999584828 ) ) ;
#710 = DIRECTION ( 'NONE',  ( 0.000000000000000000, 0.000000000000000000, 1.000000000000000000 ) ) ;
#711 = VERTEX_POINT ( 'NONE', #169 ) ;
#712 = CARTESIAN_POINT ( 'NONE',  ( 500.0000000000000000, 350.0000000000000000, 500.0000000000001137 ) ) ;
#713 = DIRECTION ( 'NONE',  ( -1.000000000000000000, 0.000000000000000000, 1.110223024625156540E-16 ) ) ;
#714 = EDGE_CURVE ( 'NONE', #808, #489, #499, .T. ) ;
#715 = EDGE_LOOP ( 'NONE', ( #825, #41, #119, #339 ) ) ;
#716 = DIRECTION ( 'NONE',  ( -0.000000000000000000, -1.000000000000000000, -0.000000000000000000 ) ) ;
#717 = LINE ( 'NONE', #785, #550 ) ;
#718 = ORIENTED_EDGE ( 'NONE', *, *, #570, .T. ) ;
#719 = CARTESIAN_POINT ( 'NONE',  ( -5.329070518200743190E-14, 0.000000000000000000, -319.9999999999995453 ) ) ;
#720 = PLANE ( 'NONE',  #616 ) ;
#721 = VECTOR ( 'NONE', #713, 1000.000000000000000 ) ;
#722 = VERTEX_POINT ( 'NONE', #751 ) ;
#723 = ADVANCED_FACE ( 'NONE', ( #292 ), #140, .F. ) ;
#724 = FACE_OUTER_BOUND ( 'NONE', #398, .T. ) ;
#725 = PLANE ( 'NONE',  #179 ) ;
#726 = LINE ( 'NONE', #482, #487 ) ;
#727 = ORIENTED_EDGE ( 'NONE', *, *, #454, .F. ) ;
#728 = AXIS2_PLACEMENT_3D ( 'NONE', #161, #36, #621 ) ;
#729 = FACE_OUTER_BOUND ( 'NONE', #603, .T. ) ;
#730 = LINE ( 'NONE', #145, #32 ) ;
#731 = ORIENTED_EDGE ( 'NONE', *, *, #263, .F. ) ;
#732 = CARTESIAN_POINT ( 'NONE',  ( 500.0000000000000000, 350.0000000000000000, 500.0000000000001137 ) ) ;
#733 = EDGE_LOOP ( 'NONE', ( #345, #451, #275, #513, #614, #661 ) ) ;
#734 = DIRECTION ( 'NONE',  ( 0.000000000000000000, -0.000000000000000000, 1.000000000000000000 ) ) ;
#735 = CARTESIAN_POINT ( 'NONE',  ( -319.9999999999996589, -20.00000000000000000, -244.9999999999995453 ) ) ;
#736 = ORIENTED_EDGE ( 'NONE', *, *, #697, .F. ) ;
#737 = ADVANCED_FACE ( 'NONE', ( #553 ), #217, .F. ) ;
#738 = VECTOR ( 'NONE', #426, 1000.000000000000000 ) ;
#739 = LINE ( 'NONE', #820, #685 ) ;
#740 = AXIS2_PLACEMENT_3D ( 'NONE', #544, #16, #541 ) ;
#741 = CARTESIAN_POINT ( 'NONE',  ( 244.9999999999995168, -20.00000000000000000, -319.9999999999994316 ) ) ;
#742 = ORIENTED_EDGE ( 'NONE', *, *, #496, .T. ) ;
#743 = PLANE ( 'NONE',  #112 ) ;
#744 = ADVANCED_FACE ( 'NONE', ( #278 ), #419, .F. ) ;
#745 = FACE_OUTER_BOUND ( 'NONE', #798, .T. ) ;
#746 = VERTEX_POINT ( 'NONE', #602 ) ;
#747 = LINE ( 'NONE', #804, #403 ) ;
#748 = EDGE_CURVE ( 'NONE', #297, #412, #214, .T. ) ;
#749 = CARTESIAN_POINT ( 'NONE',  ( -499.9999999999999432, 350.0000000000000000, -499.9999999999997726 ) ) ;
#750 = ORIENTED_EDGE ( 'NONE', *, *, #88, .F. ) ;
#751 = CARTESIAN_POINT ( 'NONE',  ( 500.0000000000000000, 311.7691453623978646, 500.0000000000001137 ) ) ;
#752 = EDGE_LOOP ( 'NONE', ( #832, #620, #566, #223 ) ) ;
#753 = LINE ( 'NONE', #504, #700 ) ;
#754 = EDGE_CURVE ( 'NONE', #678, #845, #726, .T. ) ;
#755 = DIRECTION ( 'NONE',  ( 0.000000000000000000, -0.000000000000000000, -1.000000000000000000 ) ) ;
#756 = ORIENTED_EDGE ( 'NONE', *, *, #466, .F. ) ;
#757 = ORIENTED_EDGE ( 'NONE', *, *, #237, .T. ) ;
#758 = VERTEX_POINT ( 'NONE', #606 ) ;
#759 = VECTOR ( 'NONE', #126, 1000.000000000000000 ) ;
#760 = DIRECTION ( 'NONE',  ( -0.000000000000000000, 1.000000000000000000, -0.000000000000000000 ) ) ;
#761 = EDGE_CURVE ( 'NONE', #678, #45, #673, .T. ) ;
#762 = ORIENTED_EDGE ( 'NONE', *, *, #263, .T. ) ;
#763 = PRESENTATION_LAYER_ASSIGNMENT (  '', '', ( #42 ) ) ;
#764 = DIRECTION ( 'NONE',  ( -0.4472135954999584273, -0.7745966692414828492, 0.4472135954999584828 ) ) ;
#765 = DIRECTION ( 'NONE',  ( 1.000000000000000000, -0.000000000000000000, -0.000000000000000000 ) ) ;
#766 = VECTOR ( 'NONE', #709, 1000.000000000000000 ) ;
#767 = AXIS2_PLACEMENT_3D ( 'NONE', #132, #816, #97 ) ;
#768 = ORIENTED_EDGE ( 'NONE', *, *, #505, .T. ) ;
#769 = ORIENTED_EDGE ( 'NONE', *, *, #676, .F. ) ;
#770 = PRESENTATION_LAYER_ASSIGNMENT (  '', '', ( #563 ) ) ;
#771 = CARTESIAN_POINT ( 'NONE',  ( 319.9999999999996589, 0.000000000000000000, 319.9999999999997726 ) ) ;
#772 = CARTESIAN_POINT ( 'NONE',  ( -319.9999999999996021, 0.000000000000000000, 319.9999999999998863 ) ) ;
#773 = ORIENTED_EDGE ( 'NONE', *, *, #714, .T. ) ;
#774 = DIRECTION ( 'NONE',  ( -0.000000000000000000, 1.000000000000000000, -0.000000000000000000 ) ) ;
#775 = ADVANCED_FACE ( 'NONE', ( #478 ), #609, .F. ) ;
#776 = DIRECTION ( 'NONE',  ( -1.480297366166875453E-15, 0.000000000000000000, 1.000000000000000000 ) ) ;
#777 = DIRECTION ( 'NONE',  ( -0.000000000000000000, 0.000000000000000000, -1.000000000000000000 ) ) ;
#778 = VERTEX_POINT ( 'NONE', #20 ) ;
#779 = LINE ( 'NONE', #194, #662 ) ;
#780 = ADVANCED_FACE ( 'NONE', ( #677 ), #358, .F. ) ;
#781 = DIRECTION ( 'NONE',  ( -1.000000000000000000, -0.000000000000000000, -7.401486830834381209E-16 ) ) ;
#782 = ORIENTED_EDGE ( 'NONE', *, *, #95, .T. ) ;
#783 = PRODUCT_DEFINITION_SHAPE ( 'NONE', 'NONE',  #481 ) ;
#784 = CARTESIAN_POINT ( 'NONE',  ( -499.9999999999999432, 311.7691453623978646, 500.0000000000002274 ) ) ;
#785 = CARTESIAN_POINT ( 'NONE',  ( 244.9999999999994316, -20.00000000000000000, -244.9999999999994316 ) ) ;
#786 = ORIENTED_EDGE ( 'NONE', *, *, #376, .T. ) ;
#787 = ADVANCED_FACE ( 'NONE', ( #12 ), #797, .F. ) ;
#788 = LINE ( 'NONE', #567, #73 ) ;
#789 = DIRECTION ( 'NONE',  ( 3.700743415417188139E-16, -0.000000000000000000, 1.000000000000000000 ) ) ;
#790 = VECTOR ( 'NONE', #370, 1000.000000000000000 ) ;
#791 = EDGE_LOOP ( 'NONE', ( #718, #368, #406, #165 ) ) ;
#792 = ADVANCED_FACE ( 'NONE', ( #282 ), #85, .F. ) ;
#793 = DIRECTION ( 'NONE',  ( 1.110223024625156540E-15, 0.000000000000000000, -1.000000000000000000 ) ) ;
#794 = DIRECTION ( 'NONE',  ( 0.000000000000000000, 0.000000000000000000, -1.000000000000000000 ) ) ;
#795 = EDGE_LOOP ( 'NONE', ( #114, #452, #731, #318 ) ) ;
#796 = LINE ( 'NONE', #546, #485 ) ;
#797 = PLANE ( 'NONE',  #268 ) ;
#798 = EDGE_LOOP ( 'NONE', ( #141, #190, #756, #782 ) ) ;
#799 = CARTESIAN_POINT ( 'NONE',  ( -244.9999999999996021, 0.000000000000000000, 244.9999999999998863 ) ) ;
#800 = ADVANCED_FACE ( 'NONE', ( #613 ), #547, .F. ) ;
#801 = DIRECTION ( 'NONE',  ( -3.700743415417188139E-16, 0.000000000000000000, 1.000000000000000000 ) ) ;
#802 = ORIENTED_EDGE ( 'NONE', *, *, #144, .T. ) ;
#803 = VECTOR ( 'NONE', #71, 1000.000000000000000 ) ;
#804 = CARTESIAN_POINT ( 'NONE',  ( 244.9999999999998863, 0.000000000000000000, 244.9999999999996589 ) ) ;
#805 = LINE ( 'NONE', #99, #634 ) ;
#806 = EDGE_CURVE ( 'NONE', #283, #708, #209, .T. ) ;
#807 = DIRECTION ( 'NONE',  ( 1.480297366166875453E-15, 0.000000000000000000, 1.000000000000000000 ) ) ;
#808 = VERTEX_POINT ( 'NONE', #222 ) ;
#809 = VECTOR ( 'NONE', #760, 1000.000000000000000 ) ;
#810 = FACE_OUTER_BOUND ( 'NONE', #791, .T. ) ;
#811 = VECTOR ( 'NONE', #326, 1000.000000000000000 ) ;
#812 = AXIS2_PLACEMENT_3D ( 'NONE', #732, #469, #352 ) ;
#813 = DIRECTION ( 'NONE',  ( 1.480297366166875256E-15, 0.000000000000000000, 1.000000000000000000 ) ) ;
#814 = CARTESIAN_POINT ( 'NONE',  ( -499.9999999999999432, 311.7691453623978646, 500.0000000000002274 ) ) ;
#815 = ORIENTED_EDGE ( 'NONE', *, *, #466, .T. ) ;
#816 = DIRECTION ( 'NONE',  ( -0.000000000000000000, 0.000000000000000000, -1.000000000000000000 ) ) ;
#817 = EDGE_CURVE ( 'NONE', #592, #554, #474, .T. ) ;
#818 = CARTESIAN_POINT ( 'NONE',  ( -499.9999999999999432, 311.7691453623978646, -499.9999999999997726 ) ) ;
#819 = FACE_OUTER_BOUND ( 'NONE', #110, .T. ) ;
#820 = CARTESIAN_POINT ( 'NONE',  ( -244.9999999999996021, 0.000000000000000000, 244.9999999999998863 ) ) ;
#821 = EDGE_CURVE ( 'NONE', #124, #297, #488, .T. ) ;
#822 = DIRECTION ( 'NONE',  ( -1.000000000000000000, 0.000000000000000000, 0.000000000000000000 ) ) ;
#823 = SHAPE_DEFINITION_REPRESENTATION ( #783, #269 ) ;
#824 = ORIENTED_EDGE ( 'NONE', *, *, #692, .T. ) ;
#825 = ORIENTED_EDGE ( 'NONE', *, *, #270, .T. ) ;
#826 = CARTESIAN_POINT ( 'NONE',  ( 319.9999999999993747, -20.00000000000000000, -244.9999999999993747 ) ) ;
#827 = PRESENTATION_STYLE_ASSIGNMENT (( #372 ) ) ;
#828 = PLANE ( 'NONE',  #509 ) ;
#829 = ORIENTED_EDGE ( 'NONE', *, *, #761, .F. ) ;
#830 = DIRECTION ( 'NONE',  ( -0.000000000000000000, 1.000000000000000000, -0.000000000000000000 ) ) ;
#831 = EDGE_CURVE ( 'NONE', #489, #722, #730, .T. ) ;
#832 = ORIENTED_EDGE ( 'NONE', *, *, #199, .T. ) ;
#833 = AXIS2_PLACEMENT_3D ( 'NONE', #327, #525, #512 ) ;
#834 = CARTESIAN_POINT ( 'NONE',  ( 500.0000000000000000, 311.7691453623978646, 500.0000000000001137 ) ) ;
#835 = CARTESIAN_POINT ( 'NONE',  ( 500.0000000000000000, 350.0000000000000000, 500.0000000000001137 ) ) ;
#836 = ORIENTED_EDGE ( 'NONE', *, *, #535, .T. ) ;
#837 = EDGE_LOOP ( 'NONE', ( #374, #27, #574, #67 ) ) ;
#838 = CARTESIAN_POINT ( 'NONE',  ( 500.0000000000000000, 350.0000000000000000, 500.0000000000001137 ) ) ;
#839 = DIRECTION ( 'NONE',  ( -0.000000000000000000, 1.000000000000000000, -0.000000000000000000 ) ) ;
#840 = VECTOR ( 'NONE', #31, 1000.000000000000000 ) ;
#841 = ORIENTED_EDGE ( 'NONE', *, *, #600, .T. ) ;
#842 = EDGE_CURVE ( 'NONE', #373, #489, #501, .T. ) ;
#843 = DIRECTION ( 'NONE',  ( -0.000000000000000000, 1.000000000000000000, -0.000000000000000000 ) ) ;
#844 = CARTESIAN_POINT ( 'NONE',  ( 319.9999999999993747, -20.00000000000000000, -244.9999999999993747 ) ) ;
#845 = VERTEX_POINT ( 'NONE', #307 ) ;
#846 = LINE ( 'NONE', #64, #811 ) ;
#847 = CARTESIAN_POINT ( 'NONE',  ( -319.9999999999996589, 0.000000000000000000, -319.9999999999995453 ) ) ;
#848 = ORIENTED_EDGE ( 'NONE', *, *, #676, .T. ) ;
#849 = DIRECTION ( 'NONE',  ( 1.000000000000000000, 0.000000000000000000, -1.110223024625156540E-16 ) ) ;
#850 = AXIS2_PLACEMENT_3D ( 'NONE', #84, #612, #289 ) ;
ENDSEC;
END-ISO-10303-21;
